#!OML:ASF F:\VICON\USERDATA\INSTALL\rory3\rory3.ASF
:FULLY-SPECIFIED
:DEGREES
28
root -0.1432842347302431 17.91770558419296 -1.0610511504735403 -1.8044380066741872 -0.011574509091395235 -2.224338231300861
lfemur -8.216543504507849 -2.296011900088036 -22.53177071277508
ltibia 20.927963174068662
lfoot 2.044598082764317 -5.716553160353295
ltoes -6.730162117868209
rfemur -7.44735987174833 3.2889085373481324 24.71616052076387
rtibia 53.460699612395956
rfoot -14.462563063498683 -7.1147378308543985
rtoes -3.333715178378662
lowerback 10.061774604683004 1.324626057764286 1.1025606177961602
upperback 0.20494394805016602 1.6669962004490972 0.8178355159476713
thorax -5.313524496207334 0.9862313754918786 0.27316745611373505
lowerneck -16.091739917576657 -3.0791812849928117 -1.8025089097207234
upperneck 22.15816569621611 -3.9918444275637452 0.6380271050747682
head 9.841881590437694 -1.933234899192699 -0.02534087438202578
lclavicle -3.616362944327189e-16 5.803562888291724e-16
lhumerus -27.098189365027316 3.424089605255987 78.04341336466952
lradius 22.88802351470523
lwrist 7.7875222808428415
lhand -30.986008894594654 20.29363788284352
lfingers 7.12502
lthumb -4.602760197690836 49.77200680103378
rclavicle -3.616362942948402e-16 5.803562889218069e-16
rhumerus -30.524546180507883 -17.510509868223537 -79.80717845049928
rradius 26.017355398494963
rwrist 0.19272351007586908
rhand -17.740975399769276 20.710562332466548
rfingers 7.12502
rthumb 8.64077041285553 -8.676471959162248
29
root -0.1527249593201575 17.914064402108952 -0.27105302406842746 -1.8398307953543913 -0.1477640888636147 -1.9264408723327133
lfemur -6.2783324546508545 -2.5089074091502988 -22.65019502298437
ltibia 20.929110956268595
lfoot 3.743217392418975 -6.914951134921861
ltoes -5.181006508271747
rfemur -7.876975066269724 3.242672133023314 24.540453327598566
rtibia 53.24455622287677
rfoot -14.98884680768596 -6.765246269146445
rtoes -3.8497751026514537
lowerback 10.094553398490511 1.1840720585332938 0.6736177410003703
upperback 0.19702969502515558 1.4873867732363477 0.8408585375530534
thorax -5.343171568888408 0.8928260605644585 0.4518763847925061
lowerneck -16.15461825565731 -3.0438150327134155 -1.8042427475178242
upperneck 22.12267757600887 -3.9328131930631436 0.6514713292771966
head 9.877003217916021 -1.9032862453762447 -0.006860444900303235
lclavicle -3.6163629444010333e-16 5.803562888246102e-16
lhumerus -25.869673726686187 2.7536176198753224 77.91504751451325
lradius 24.010914268144454
lwrist 7.702569849197766
lhand -31.086023580014245 20.50120391966168
lfingers 7.12502
lthumb -4.6282565773532305 50.065750673140485
rclavicle -3.6163629429435694e-16 5.803562889225299e-16
rhumerus -31.50343476739745 -18.462323687559145 -79.35991763854267
rradius 26.089497245532865
rwrist 0.2624507144335011
rhand -17.678308929321304 20.66816802052635
rfingers 7.12502
rthumb 8.693013676438568 -8.85427309540481
30
root -0.1699336566143025 17.90057179475463 0.31830765785017157 -2.033231498384633 -0.4213483527950417 -1.4663507753452973
lfemur -5.57468797498133 -2.5575852298427795 -23.314529394937345
ltibia 21.85963136973947
lfoot 4.796704033376097 -7.138692230769259
ltoes -3.3988566294265974
rfemur -8.291094411157642 3.326547121615186 24.189876803818322
rtibia 52.78125880115141
rfoot -15.202764473498883 -6.526054009865909
rtoes -2.9841078362474525
lowerback 10.289088933675872 1.011834206065565 -0.02286083205185019
upperback 0.1994258957618001 1.2128412893113267 0.8148408426312448
thorax -5.414957851463458 0.7671877009513821 0.713497850743398
lowerneck -16.123896663985118 -3.0044504658677145 -1.8210137738870895
upperneck 22.04892311422099 -3.8694787047162453 0.6792858165902977
head 9.834002844664635 -1.881389855921144 0.027104946447838778
lclavicle -3.6163629443848415e-16 5.80356288826085e-16
lhumerus -25.10348656862174 1.8993363400226069 77.72507532531023
lradius 25.37836843846665
lwrist 7.643690138151522
lhand -31.20093577916285 20.405524698415977
lfingers 7.12502
lthumb -4.707898984577603 49.960953704005455
rclavicle -3.61636294305674e-16 5.8035628891523905e-16
rhumerus -32.36504273323937 -19.493320131467467 -78.94598680424163
rradius 26.280279095381868
rwrist 0.054273440779271986
rhand -17.723527194961534 20.597464591156523
rfingers 7.12502
rthumb 8.713815550465124 -8.846619725411047
31
root -0.18806852228212823 17.890255896149093 0.9580806561836681 -2.1112058447302564 -0.6359491086123186 -1.1756515197081918
lfemur -4.47693582595477 -2.630392772722966 -23.24608089205011
ltibia 22.72889947806575
lfoot 4.519731381251686 -6.741135498683425
ltoes 2.1061957105460003
rfemur -8.806610453498543 3.37110689282103 23.900474516109565
rtibia 52.163396411933576
rfoot -15.486360185488142 -6.452367362467308
rtoes -3.4831371791950367
lowerback 10.382930231758237 0.831364642212346 -0.5478789893862994
upperback 0.23308998012842955 0.8488973774948193 0.7440782740990811
thorax -5.422629890459906 0.6065594281107958 1.0786474501871832
lowerneck -16.173933706984677 -2.964183122266556 -1.8256155447719937
upperneck 21.97091777170831 -3.8108280375284895 0.6854750637093288
head 9.803626695504205 -1.8565600411902259 0.04586579980492137
lclavicle -3.616362944345961e-16 5.80356288829099e-16
lhumerus -24.367225641334095 1.2892833576540528 77.6626284429795
lradius 26.75456111421518
lwrist 7.665097177902035
lhand -31.240162040794655 19.91051184731332
lfingers 7.12502
lthumb -4.634821451310103 49.49802801619678
rclavicle -3.6163629430667377e-16 5.803562889150338e-16
rhumerus -33.104996192061776 -20.493241035177174 -78.2574809724283
rradius 26.590178293150817
rwrist -0.15068927451549463
rhand -17.702921906817636 20.475398152014648
rfingers 7.12502
rthumb 8.722700422135457 -9.07849527514718
32
root -0.20431374429271587 17.874811759822364 2.0887891963583147 -2.2342266076520696 -0.9518455999197044 -0.784042518922359
lfemur -3.4009125715551276 -2.613276477326811 -23.609208846923156
ltibia 24.243019574048834
lfoot 4.240406181298244 -6.254261881096554
ltoes 1.1401991818282982
rfemur -9.297613223020809 3.4605396754985147 23.541566806494686
rtibia 51.31516423727399
rfoot -15.700536892583635 -6.531184246239071
rtoes -3.313709748005774
lowerback 10.417815462336504 0.6958197656980764 -1.0704153604027578
upperback 0.2537366788657338 0.6341200953718658 0.6896206069850659
thorax -5.4613062048594205 0.49777586277512625 1.3492773356874141
lowerneck -16.196334967095716 -2.9208554110786142 -1.914562078036348
upperneck 21.934672056430053 -3.7390234609909627 0.747081817694197
head 9.783732880861395 -1.827377317297381 0.11883888114909705
lclavicle -3.6163629443556856e-16 5.803562888287882e-16
lhumerus -23.850368289797455 0.8940630121462094 77.61314250323836
lradius 27.96797823778866
lwrist 7.853007445499891
lhand -30.518624907236266 21.48281399431689
lfingers 7.12502
lthumb -4.056123484969625 50.63962748224473
rclavicle -3.6163629431186916e-16 5.803562889118942e-16
rhumerus -33.64555536875096 -21.594987209506012 -77.67943131213262
rradius 26.899712469822596
rwrist 0.027726314421037124
rhand -17.64525871964622 20.479823263595023
rfingers 7.12502
rthumb 8.83527509288604 -8.905331486478278
33
root -0.21167469519204707 17.847757947098188 3.435516675892231 -2.52286716058336 -1.490916209918979 -0.049590843972898924
lfemur -2.157428451877947 -2.583068513293616 -24.324763770732336
ltibia 25.67376191833328
lfoot 4.13823986045422 -6.0898306688434305
ltoes 1.9682359145756854
rfemur -10.081428873713906 3.4151888416490315 22.7750272406945
rtibia 51.36135707275914
rfoot -15.944511939277877 -6.7265055270570695
rtoes -1.4047268196845568
lowerback 10.492502397840338 0.6395033607475707 -1.8109810170123393
upperback 0.30524689764849683 0.4937582055776687 0.6772437180963116
thorax -5.491007535377647 0.41566245413907577 1.558591516764224
lowerneck -16.188260200812948 -2.8660162974369374 -1.9769933008875205
upperneck 21.921333751832208 -3.65134751879058 0.8177889736130841
head 9.759889084307282 -1.7949143345860057 0.18403108819343975
lclavicle -3.6163629443734656e-16 5.803562888278526e-16
lhumerus -23.37339613537401 1.0263759287102268 77.70595081896816
lradius 28.80545634213522
lwrist 8.01225188492208
lhand -29.56204665811496 21.38019367747142
lfingers 7.12502
lthumb -3.204455822253537 50.68385789941388
rclavicle -3.6163629431041637e-16 5.803562889131399e-16
rhumerus -34.02497742034885 -22.801850339778486 -77.09407129835205
rradius 27.163077649152417
rwrist 0.10000855040687373
rhand -17.57239137028674 20.401605592096004
rfingers 7.12502
rthumb 8.9604586504731 -8.905755942781195
34
root -0.2197208930648885 17.822999476899366 4.381446998863542 -2.565991976208789 -2.092306494292955 0.7810790544988047
lfemur -1.1920322593924242 -2.498390925597336 -25.025481103578592
ltibia 27.08914521527892
lfoot 4.5212704292757735 -5.911139725209816
ltoes 1.6127467585873099
rfemur -11.823707903102562 3.2183809529691523 21.671259753825264
rtibia 51.41568212966891
rfoot -16.152309851536625 -6.933524630507561
rtoes -0.5545236241925098
lowerback 10.569797250041749 0.562313386739822 -2.628410210182664
upperback 0.35255446665812007 0.2903892988388673 0.5624923534340098
thorax -5.493984437147957 0.3265289751878399 1.7974441275260242
lowerneck -16.21642249782204 -2.8226146983709417 -1.9837540930737265
upperneck 21.97798834019762 -3.5709808493011876 0.7915393423105875
head 9.7819584849958 -1.76491586610557 0.19724189802123457
lclavicle -3.6163629443931067e-16 5.803562888267551e-16
lhumerus -23.513181260515488 1.1674625391794349 77.83436023704736
lradius 29.541025737227432
lwrist 7.678102111170931
lhand -29.274519567899688 20.963618126186805
lfingers 7.12502
lthumb -2.871108535112438 50.68667585670836
rclavicle -3.616362943283003e-16 5.803562889014791e-16
rhumerus -34.245527539577715 -23.723667956077044 -76.48664147759044
rradius 27.42273724396523
rwrist 0.5287510284167953
rhand -17.54370375890054 20.593581145121988
rfingers 7.12502
rthumb 8.985108164405808 -8.67575213447235
